<svg xmlns="http://www.w3.org/2000/svg" viewBox="0 0 243 60" fill="none">
  <path d="M0 5V50H9V34L24 50H36L15 27L36 5H24L9 24V5H0Z" fill="white"/>
  <path d="M47 20C37 20 31 27 31 35C31 43 37 50 47 50C57 50 63 43 63 35C63 27 57 20 47 20ZM47 40C43 40 41 38 41 35C41 32 43 30 47 30C51 30 53 32 53 35C53 38 51 40 47 40Z" fill="white"/>
  <path d="M71 20V58H85V46C88 48 92 50 97 50C108 50 115 43 115 35C115 27 108 20 97 20C92 20 88 22 85 24V20H71ZM93 40C89 40 85 37 85 35C85 33 89 30 93 30C97 30 101 33 101 35C101 37 97 40 93 40Z" fill="white"/>
  <path d="M125 8C120 8 117 11 117 15C117 19 120 22 125 22C130 22 133 19 133 15C133 11 130 8 125 8ZM119 20V50H131V20H119Z" fill="white"/>
  <path d="M141 5V50H155V5H141Z" fill="white"/>
  <path d="M173 20C163 20 157 27 157 35C157 43 163 50 173 50C183 50 189 43 189 35C189 27 183 20 173 20ZM173 40C169 40 167 38 167 35C167 32 169 30 173 30C177 30 179 32 179 35C179 38 177 40 173 40Z" fill="white"/>
  <path d="M205 8V20H195V30H205V42C205 48 211 50 221 50H233V42H223C219 42 217 40 217 37V30H233V20H217V8H205Z" fill="white"/>
  <rect x="0" y="52" width="18" height="3" fill="#FF5F1F"/>
</svg>
